<?xml version="1.0" encoding="UTF-8" ?>
<!DOCTYPE svg PUBLIC "-//W3C//DTD SVG 1.1//EN" "http://www.w3.org/Graphics/SVG/1.1/DTD/svg11.dtd">
<svg width="800pt" height="600pt" viewBox="0 0 800 600" version="1.1" xmlns="http://www.w3.org/2000/svg">
<g id="#ffffffff">
</g>
<g id="#000000ff">
<path fill="#000000" opacity="1.00" d=" M 342.46 119.42 C 359.76 114.30 377.28 109.73 395.03 106.51 C 411.77 110.21 428.43 114.48 445.00 118.93 C 450.42 120.02 454.37 124.20 459.12 126.73 C 473.62 136.25 488.72 144.81 503.07 154.58 C 506.34 156.35 508.05 159.79 510.28 162.61 C 517.43 172.19 524.29 181.99 531.49 191.53 C 532.74 193.05 532.65 195.10 532.78 196.95 C 532.93 203.82 532.51 210.74 530.99 217.46 L 529.70 218.25 C 529.95 218.33 530.44 218.48 530.69 218.56 C 537.73 208.12 546.77 199.09 553.40 188.35 C 554.78 186.32 554.84 183.28 557.26 182.12 C 557.69 185.00 556.16 187.55 554.95 190.02 C 553.50 192.79 553.38 195.98 552.57 198.95 C 551.32 204.25 547.85 208.57 545.51 213.39 C 543.56 217.05 543.20 221.28 541.49 225.04 C 540.23 228.31 538.27 231.24 536.19 234.04 C 542.93 227.50 550.57 221.54 555.26 213.24 C 555.91 211.69 557.51 211.07 558.82 210.20 C 558.64 214.91 557.87 219.70 555.61 223.89 C 552.17 230.95 546.65 236.64 542.19 243.02 C 548.04 238.36 554.51 234.33 559.22 228.42 C 559.51 228.63 560.08 229.06 560.37 229.28 C 559.26 231.49 558.24 233.74 557.30 236.03 C 561.50 232.87 565.25 229.08 567.90 224.52 C 566.12 235.70 559.15 245.44 550.55 252.57 C 543.54 259.17 533.80 262.02 527.34 269.24 C 524.53 272.28 520.48 273.53 517.09 275.74 C 520.83 274.34 524.23 272.12 528.12 271.06 C 532.86 269.74 537.60 268.38 542.35 267.04 C 540.48 268.70 538.21 269.79 536.05 271.00 C 524.45 277.12 512.48 282.50 500.98 288.79 C 510.01 285.41 518.71 281.18 527.60 277.45 C 536.13 273.82 543.99 268.84 551.39 263.29 C 558.31 259.99 565.32 256.14 570.04 249.90 C 567.62 256.85 561.77 261.75 558.33 268.12 C 556.03 272.22 552.85 275.74 549.47 278.97 C 555.59 278.27 562.31 280.29 567.68 276.40 C 563.81 282.35 556.61 284.12 550.41 286.50 C 542.33 290.89 533.02 291.42 524.11 292.67 C 519.85 293.19 516.14 295.52 512.06 296.66 C 509.38 297.26 506.63 297.23 503.92 297.53 C 512.01 297.99 520.18 298.32 528.17 296.66 C 536.66 294.88 545.36 295.56 553.96 295.34 C 558.71 295.28 563.54 294.13 567.47 291.36 C 568.90 290.24 570.08 288.75 571.84 288.09 C 566.06 296.60 556.65 302.07 546.90 304.80 C 541.20 305.71 535.44 306.23 529.78 307.42 C 530.84 307.91 531.91 308.41 532.98 308.91 C 530.06 310.14 526.79 309.37 523.73 309.64 C 524.56 311.19 526.47 311.42 527.90 312.20 C 534.66 314.90 541.40 319.05 548.97 318.28 C 550.55 318.32 553.72 317.38 553.49 320.08 C 551.28 322.49 547.85 323.14 544.97 324.44 C 532.47 327.37 520.24 322.01 508.96 317.23 C 519.64 323.57 528.32 332.64 538.83 339.22 C 538.55 339.49 537.98 340.02 537.70 340.29 C 531.29 336.80 523.79 336.55 517.03 334.03 C 507.29 330.35 500.29 321.56 489.96 319.14 C 500.58 326.28 509.44 335.58 519.31 343.65 C 524.22 347.86 530.89 348.40 537.07 348.65 C 531.14 350.95 524.05 351.97 518.24 348.80 C 509.85 344.44 500.85 341.23 492.98 335.91 C 490.07 333.98 487.16 332.03 484.10 330.34 C 485.83 332.13 487.74 333.76 489.29 335.72 C 493.66 341.88 499.41 346.86 504.45 352.44 C 505.61 353.15 504.62 355.45 503.24 354.67 C 496.76 353.19 492.51 347.67 487.32 343.99 C 492.50 351.58 498.85 358.33 506.05 364.02 C 507.54 365.69 504.60 366.48 503.51 365.66 C 498.50 363.33 492.93 360.99 489.82 356.15 C 488.06 353.70 485.42 352.13 483.15 350.23 C 486.50 354.83 488.29 360.46 492.23 364.64 C 493.21 365.89 494.74 366.93 494.74 368.71 C 488.79 367.98 484.29 363.83 479.41 360.76 C 474.52 357.63 471.95 352.23 468.22 347.97 C 468.02 349.33 469.12 351.54 467.57 352.32 C 466.06 352.84 464.48 353.10 462.95 353.49 C 468.46 363.22 470.61 374.54 476.93 383.88 C 475.52 382.39 474.27 380.78 473.06 379.14 C 469.82 374.63 464.31 372.38 461.25 367.72 C 458.75 364.27 458.05 359.89 455.53 356.45 C 453.87 354.10 452.48 351.58 451.16 349.03 C 454.78 360.36 456.46 372.22 460.46 383.44 C 461.06 385.22 461.46 387.07 461.64 388.96 C 458.98 387.02 457.45 384.01 455.35 381.55 C 452.82 378.27 449.59 375.53 447.59 371.85 C 447.52 372.59 447.39 374.08 447.32 374.83 C 446.04 373.39 445.14 371.72 444.23 370.06 C 445.12 375.65 446.89 381.12 446.87 386.85 C 444.70 384.83 442.41 382.89 440.67 380.49 C 438.46 377.12 437.77 373.07 436.92 369.21 C 436.91 382.60 440.28 395.68 441.79 408.93 C 442.36 415.57 445.16 421.66 446.82 428.04 C 441.43 420.39 438.51 411.37 437.25 402.15 C 436.59 397.25 435.96 392.07 432.98 387.95 C 429.76 383.55 429.23 378.01 428.26 372.83 C 427.02 374.59 427.50 376.89 427.27 378.91 C 427.33 384.94 426.19 390.90 426.21 396.93 C 423.01 391.98 421.50 386.31 419.57 380.81 C 419.44 386.32 420.05 391.82 419.57 397.33 C 416.84 394.93 416.17 391.21 414.69 388.06 C 414.35 388.49 413.66 389.34 413.32 389.76 C 412.85 387.80 411.55 386.29 410.26 384.83 C 410.14 389.73 409.67 394.71 410.77 399.54 C 412.00 405.03 414.92 409.91 417.08 415.05 C 417.86 417.45 420.10 418.85 421.26 421.01 C 419.37 420.52 417.62 419.64 415.90 418.75 C 418.25 424.79 419.85 431.18 423.25 436.77 C 424.44 438.88 426.33 440.57 427.10 442.93 C 424.84 441.53 422.91 439.71 421.01 437.90 C 423.05 444.82 426.57 451.31 427.43 458.56 C 426.30 458.89 425.18 459.25 424.08 459.64 C 424.29 465.81 423.82 471.99 423.33 478.14 C 421.64 471.59 422.38 464.73 422.31 458.05 C 423.09 458.21 424.64 458.54 425.42 458.70 C 422.01 454.52 419.06 449.99 416.12 445.48 C 416.16 447.81 416.23 450.19 416.32 452.54 C 415.88 452.47 415.01 452.33 414.57 452.26 C 415.04 456.56 415.69 460.88 415.47 465.22 L 414.07 464.67 C 412.42 460.11 409.78 455.88 409.40 450.93 C 408.51 457.61 410.28 464.26 409.61 470.94 C 408.57 477.05 411.45 482.91 411.65 489.01 C 411.99 496.65 412.40 504.30 412.59 511.95 C 410.59 502.54 409.53 492.97 408.26 483.45 C 406.21 474.56 406.17 465.06 401.80 456.84 C 401.63 462.28 402.43 467.74 401.77 473.17 C 401.34 477.79 397.39 481.29 397.49 486.05 C 396.40 492.13 398.42 498.10 398.59 504.16 C 397.42 501.71 396.75 499.07 397.48 496.39 C 394.60 490.31 395.11 483.39 393.82 476.93 C 392.55 481.80 392.06 486.85 390.67 491.71 C 388.58 504.45 389.64 517.43 389.48 530.28 C 386.47 516.76 387.23 502.77 388.49 489.09 C 386.90 480.38 389.58 471.70 389.04 462.97 C 388.88 459.95 388.63 456.95 388.57 453.94 C 388.11 459.07 386.61 464.02 385.65 469.07 C 384.39 476.29 384.10 483.67 384.79 490.98 C 382.80 488.84 381.44 486.24 379.68 483.94 C 377.83 494.26 378.94 504.89 376.96 515.18 C 376.10 506.48 376.59 497.74 376.55 489.02 C 375.54 484.14 374.92 479.09 376.46 474.23 C 375.45 474.81 374.54 475.65 373.35 475.81 C 373.68 475.11 374.03 474.42 374.40 473.75 C 374.14 472.86 373.62 471.10 373.37 470.22 C 372.64 471.85 371.80 473.43 371.23 475.13 C 371.02 481.26 371.87 487.39 371.53 493.53 C 369.94 487.50 369.33 481.23 368.94 475.02 C 366.29 476.53 367.65 479.72 367.28 482.15 C 365.59 478.06 364.64 473.39 366.17 469.09 C 367.84 464.56 370.46 460.45 372.28 455.98 C 370.96 456.87 369.46 457.47 367.85 457.21 C 366.95 459.32 365.68 461.22 364.41 463.12 C 363.53 470.06 365.16 477.08 364.49 484.05 C 362.71 476.84 362.43 469.41 361.42 462.09 C 362.82 458.47 364.05 454.78 365.03 451.02 C 362.55 453.86 359.35 456.48 355.36 456.43 C 357.68 451.29 360.06 446.11 363.56 441.65 C 365.23 432.75 363.69 423.41 366.74 414.75 C 368.10 410.52 370.58 406.61 370.76 402.05 C 370.02 402.83 368.56 404.38 367.83 405.15 C 368.13 402.32 368.77 399.35 367.32 396.72 C 367.84 400.43 363.41 397.57 365.21 396.33 C 366.43 396.31 367.65 396.37 368.87 396.50 C 368.59 393.12 370.16 390.03 371.13 386.89 C 370.58 387.36 369.48 388.30 368.94 388.78 C 369.18 386.44 369.24 384.09 369.07 381.75 C 366.75 384.13 365.41 387.25 363.11 389.66 C 364.20 384.86 364.91 379.99 364.62 375.06 C 362.39 379.39 360.43 383.85 358.54 388.35 C 357.04 392.05 355.94 396.26 357.44 400.15 C 354.02 395.89 354.04 390.09 354.85 384.96 C 352.10 388.92 350.25 393.76 346.53 396.90 C 347.12 392.18 348.01 387.50 348.77 382.80 C 346.72 384.91 344.58 388.88 341.38 388.29 C 340.89 384.41 342.94 380.70 343.66 376.93 C 341.00 382.56 337.08 387.46 332.62 391.76 C 330.80 392.32 330.21 390.19 331.12 388.92 C 335.28 378.47 338.29 367.62 341.80 356.95 C 336.70 364.09 333.59 372.83 327.01 378.79 C 326.40 378.77 325.17 378.74 324.56 378.72 C 321.82 384.14 319.69 390.29 315.03 394.39 C 312.38 394.42 313.67 391.44 314.21 390.10 C 315.76 386.10 317.47 382.15 318.57 377.99 C 316.12 380.41 314.93 384.11 311.84 385.80 C 309.25 385.45 310.83 382.72 311.55 381.42 C 314.50 376.25 316.55 370.64 318.65 365.08 C 314.50 370.34 309.16 374.75 303.00 377.42 C 301.27 378.12 300.69 375.77 301.93 374.98 C 304.45 372.39 306.88 369.71 308.81 366.64 C 305.60 365.53 308.31 363.03 308.97 361.07 C 305.83 362.33 303.30 364.64 301.36 367.37 C 298.23 371.81 292.46 372.61 287.94 375.03 C 291.76 371.34 294.32 366.67 297.03 362.17 C 296.12 362.48 294.30 363.10 293.40 363.41 C 294.32 360.05 296.68 357.46 298.94 354.93 C 295.15 356.17 291.38 357.97 287.44 358.44 C 288.39 355.19 291.01 352.84 293.03 350.23 C 292.12 350.30 290.30 350.44 289.39 350.51 C 289.52 345.69 294.02 342.47 295.98 338.28 C 290.23 342.38 288.40 351.12 280.77 352.52 C 280.67 353.50 280.57 354.49 280.48 355.49 C 280.04 355.61 279.17 355.84 278.73 355.95 C 278.99 355.23 279.51 353.78 279.77 353.05 C 275.74 354.64 271.75 357.37 267.21 356.70 C 272.11 353.46 275.46 348.60 279.68 344.62 C 283.38 340.98 286.90 337.17 290.64 333.57 C 283.61 334.45 276.32 334.28 269.79 337.52 C 269.64 336.99 269.34 335.93 269.18 335.40 C 276.96 331.72 284.08 326.83 291.46 322.43 C 287.94 322.50 284.38 322.41 280.96 321.49 C 279.64 320.68 278.55 321.84 277.54 322.48 C 271.10 327.39 262.45 328.44 254.66 327.30 C 254.60 327.02 254.48 326.46 254.42 326.17 C 261.82 322.42 269.38 319.00 277.21 316.22 C 266.20 318.22 255.04 316.66 243.98 316.18 C 250.24 314.22 255.63 310.09 262.07 308.61 C 271.41 306.31 281.14 305.66 290.24 302.35 C 282.47 302.16 274.76 303.78 266.98 303.25 C 259.73 302.78 252.44 303.05 245.21 302.21 C 245.03 301.81 244.68 300.99 244.50 300.58 C 245.44 300.61 247.33 300.68 248.27 300.71 C 243.89 299.15 239.05 297.79 236.33 293.68 C 230.41 290.24 227.19 284.04 224.24 278.12 C 227.63 282.21 230.21 287.10 234.49 290.38 C 240.38 292.79 246.87 292.87 253.08 293.84 C 257.38 294.51 261.74 295.09 266.10 294.66 C 259.86 293.40 254.70 289.30 248.61 287.55 C 244.26 285.89 238.79 284.96 236.45 280.42 C 234.50 277.12 231.27 274.95 228.89 272.02 C 230.95 273.12 232.77 274.74 235.09 275.29 C 240.43 276.74 245.32 279.57 250.80 280.55 C 256.17 281.55 261.57 282.80 267.07 282.65 C 257.37 278.92 248.10 273.84 240.09 267.20 C 242.86 268.27 245.80 268.21 248.71 268.48 C 244.40 266.16 239.52 264.55 236.19 260.78 C 233.70 257.82 230.55 255.55 227.85 252.81 C 233.33 256.35 240.08 255.64 246.11 257.73 C 241.24 253.07 236.84 247.96 232.04 243.26 C 235.51 244.87 238.82 246.82 242.10 248.80 C 237.73 243.03 232.11 238.33 228.19 232.22 C 231.86 233.78 235.18 236.19 239.19 236.91 C 235.67 227.35 227.35 220.22 225.27 210.03 C 228.26 214.90 230.90 220.09 234.79 224.33 C 237.65 226.76 241.06 228.60 243.28 231.73 C 246.48 236.09 251.28 238.98 254.23 243.55 C 256.93 247.58 260.35 251.43 265.02 253.16 C 259.29 247.39 254.32 240.93 249.83 234.17 C 248.01 231.33 245.30 229.23 243.29 226.55 C 239.65 221.56 237.03 215.90 233.19 211.05 C 230.53 207.65 228.23 203.95 226.46 200.00 C 234.38 207.46 239.81 216.93 246.47 225.43 C 249.68 230.77 254.51 234.78 258.73 239.26 C 262.32 243.01 265.88 246.83 270.09 249.89 C 264.56 243.68 259.00 237.45 254.34 230.53 C 248.85 222.35 243.09 214.33 238.36 205.68 C 235.14 200.16 233.05 194.00 229.08 188.93 C 227.06 185.87 224.56 182.65 224.51 178.83 C 227.49 184.27 232.58 188.20 235.08 193.96 C 237.10 198.65 241.64 201.42 244.33 205.67 C 250.63 214.89 257.19 224.03 265.07 232.00 C 259.91 220.74 255.23 209.23 252.41 197.13 C 252.65 196.21 253.13 194.36 253.37 193.44 C 254.67 199.87 257.22 205.93 259.51 212.04 C 257.43 203.08 260.04 193.97 262.72 185.46 C 268.74 175.21 276.46 166.10 283.11 156.28 C 284.75 153.42 287.94 152.20 290.58 150.52 C 298.65 145.59 307.00 141.15 314.99 136.10 C 324.07 130.42 333.19 124.77 342.46 119.42 M 353.85 118.40 C 364.89 118.95 375.95 118.43 387.00 118.50 C 388.55 118.39 390.23 118.83 391.70 118.19 C 393.06 114.98 393.97 111.60 395.47 108.44 C 381.58 111.66 367.42 113.99 353.85 118.40 M 396.93 108.74 C 395.88 111.76 394.92 114.80 393.89 117.82 C 410.10 117.97 426.29 118.92 442.41 120.61 C 427.40 116.11 412.07 112.75 396.93 108.74 M 396.90 119.78 C 415.88 127.21 434.45 135.80 452.80 144.69 C 451.48 137.73 450.82 130.66 449.44 123.71 C 431.99 121.67 414.47 120.07 396.90 119.78 M 343.94 120.90 C 337.41 128.38 330.96 136.00 325.66 144.42 C 335.45 140.09 345.12 135.47 355.05 131.45 C 364.51 127.04 374.61 124.34 384.36 120.72 C 376.26 120.48 368.15 120.78 360.05 120.58 C 354.68 120.35 349.28 120.21 343.94 120.90 M 325.81 146.92 C 344.71 148.91 363.53 151.88 381.98 156.49 C 383.08 156.72 384.23 157.19 385.37 156.81 C 387.06 144.75 388.39 132.60 391.37 120.78 C 368.62 127.04 347.12 136.92 325.81 146.92 M 393.19 120.85 C 390.20 132.70 389.02 144.88 387.30 156.95 C 399.87 154.47 412.49 152.26 425.14 150.22 C 433.43 148.69 441.71 147.02 450.07 145.84 C 445.86 143.69 441.56 141.73 437.28 139.74 C 422.69 133.21 408.38 125.93 393.19 120.85 M 337.95 124.41 C 323.28 133.32 308.71 142.41 293.75 150.82 C 303.03 148.57 312.49 147.22 321.89 145.72 C 324.38 142.85 326.25 139.51 328.51 136.46 C 331.39 132.24 335.12 128.67 337.95 124.41 M 451.25 123.82 C 452.84 130.83 453.44 138.01 454.87 145.06 C 469.71 147.66 484.53 150.55 499.02 154.71 C 488.42 146.88 476.73 140.70 465.85 133.29 C 461.00 130.10 456.04 127.09 451.25 123.82 M 439.63 149.87 C 422.40 153.05 405.04 155.46 387.82 158.70 C 393.87 163.24 400.52 166.91 406.74 171.22 C 421.01 180.96 435.03 191.05 449.28 200.82 C 450.34 186.58 451.52 172.34 452.00 158.06 C 452.16 154.52 451.75 150.92 452.45 147.41 C 448.29 148.79 443.89 149.01 439.63 149.87 M 286.98 154.80 C 283.00 168.17 277.13 180.88 272.53 194.04 C 287.85 178.03 303.77 162.59 320.57 148.13 C 309.20 149.44 298.08 152.17 286.98 154.80 M 454.08 147.49 C 454.13 165.37 452.62 183.21 451.03 201.01 C 461.95 199.60 472.97 199.06 483.86 197.34 C 491.20 196.50 498.47 194.96 505.85 194.57 C 489.15 178.27 471.42 163.09 454.08 147.49 M 457.59 147.93 C 464.69 153.95 471.54 160.25 478.60 166.33 C 488.83 174.76 498.22 184.14 507.99 193.09 C 506.66 181.84 505.88 170.52 504.52 159.27 C 503.40 158.80 502.29 158.32 501.15 157.94 C 486.79 153.97 472.27 150.49 457.59 147.93 M 323.99 149.03 C 323.31 165.70 320.50 182.19 319.58 198.84 C 331.88 191.06 344.39 183.60 356.38 175.34 C 364.81 169.43 373.38 163.71 382.20 158.40 C 363.03 153.99 343.61 150.55 323.99 149.03 M 273.24 196.20 C 288.08 197.23 302.99 197.32 317.80 198.85 C 317.56 191.22 318.82 183.66 319.60 176.10 C 320.68 167.11 321.49 158.09 322.15 149.07 C 304.99 163.85 288.76 179.71 273.24 196.20 M 265.19 185.18 C 262.98 192.37 263.57 200.37 266.50 207.29 C 270.72 190.60 277.94 174.90 283.87 158.78 C 277.36 167.35 270.84 176.01 265.19 185.18 M 353.00 180.07 C 342.89 186.91 332.36 193.11 322.18 199.83 C 342.21 204.14 361.27 211.82 381.06 216.98 C 381.51 197.70 382.44 178.41 384.78 159.25 C 373.70 165.42 363.49 172.97 353.00 180.07 M 386.47 160.78 C 384.43 179.63 383.60 198.58 383.10 217.52 C 404.41 212.93 425.78 208.36 446.57 201.75 C 426.47 188.19 407.25 173.26 386.47 160.78 M 506.47 161.03 C 507.99 171.63 508.59 182.34 510.24 192.92 C 515.95 196.47 521.88 199.65 527.71 202.99 C 528.02 201.90 528.59 201.00 529.44 200.28 C 529.66 199.74 530.11 198.65 530.33 198.11 C 530.55 196.78 530.59 195.46 530.46 194.14 C 522.30 183.22 514.54 172.01 506.47 161.03 M 488.12 199.70 C 476.07 201.57 463.88 202.25 451.75 203.41 C 457.35 210.40 463.32 217.11 468.48 224.46 C 475.45 234.07 483.88 243.65 485.27 255.94 C 486.99 247.50 491.97 240.07 498.42 234.51 C 501.69 228.86 504.85 222.95 506.15 216.49 C 507.00 209.77 507.09 202.98 507.90 196.26 C 501.60 198.72 494.72 198.62 488.12 199.70 M 510.53 196.94 C 509.68 204.26 510.04 211.64 509.32 218.95 C 511.89 214.84 512.67 209.98 514.84 205.73 C 514.44 217.45 509.00 227.96 505.02 238.74 C 511.24 233.17 515.58 225.81 519.43 218.50 C 519.77 218.56 520.46 218.68 520.80 218.73 L 520.04 217.00 L 521.65 217.65 C 523.49 214.08 525.26 210.47 527.21 206.95 C 522.19 202.87 516.24 199.96 510.53 196.94 M 271.56 198.39 C 269.70 208.40 272.15 219.02 277.97 227.35 C 277.72 224.19 277.34 221.04 277.34 217.87 C 278.60 221.31 279.10 224.98 280.35 228.43 C 281.91 233.47 286.07 236.99 289.20 241.06 C 291.44 234.64 296.14 229.58 299.92 224.06 C 305.46 216.12 311.12 208.27 317.08 200.64 C 301.93 199.46 286.73 199.16 271.56 198.39 M 319.75 201.13 C 324.67 224.36 332.42 246.84 339.45 269.49 C 342.53 264.36 346.49 259.85 349.98 255.01 C 359.25 242.53 368.99 230.41 379.11 218.62 C 359.16 213.33 339.94 205.55 319.75 201.13 M 301.43 225.45 C 298.19 231.08 296.65 237.58 296.06 244.01 C 295.58 248.44 297.11 252.80 299.36 256.55 C 304.65 263.20 312.92 266.12 320.42 269.48 C 325.98 270.87 331.79 270.71 337.46 271.34 C 330.38 248.70 322.90 226.10 317.95 202.87 C 311.97 210.04 306.79 217.82 301.43 225.45 M 383.95 219.32 C 391.38 228.56 397.92 238.48 405.12 247.90 C 410.80 255.72 416.97 263.18 422.53 271.09 C 426.55 261.74 429.83 252.10 433.40 242.57 C 437.98 229.21 443.34 216.12 448.85 203.11 C 427.56 209.76 405.85 215.13 383.95 219.32 M 450.11 205.02 C 440.76 227.64 433.09 250.89 424.37 273.75 C 439.27 272.62 454.21 271.86 469.13 271.14 C 473.13 270.75 477.08 267.41 476.70 263.11 C 477.11 252.29 475.99 240.95 470.69 231.32 C 464.24 222.25 457.59 213.27 450.11 205.02 M 520.35 224.46 C 517.87 228.20 517.38 232.79 516.38 237.07 C 517.56 234.25 518.42 231.27 520.58 228.97 C 520.89 229.74 521.51 231.28 521.83 232.05 C 521.51 230.77 521.95 229.85 523.14 229.31 L 522.86 228.69 C 524.08 227.39 524.43 225.65 524.77 223.97 C 524.22 225.18 523.72 226.42 523.31 227.68 C 522.40 228.43 521.33 228.99 520.15 228.55 C 522.38 224.17 524.89 219.81 525.74 214.89 C 523.87 218.04 522.32 221.38 520.35 224.46 M 381.56 219.48 C 367.23 236.12 354.09 253.72 341.12 271.43 C 367.74 270.89 394.36 271.89 420.96 272.83 C 414.67 264.48 408.38 256.13 402.19 247.70 C 395.20 238.38 388.92 228.52 381.56 219.48 M 267.97 226.89 C 268.42 229.16 268.65 232.02 270.97 233.24 C 270.72 230.84 269.41 228.76 267.97 226.89 M 523.97 242.73 C 524.59 242.40 525.82 241.72 526.44 241.38 C 527.90 238.95 529.71 236.77 531.39 234.50 C 531.48 233.90 531.64 232.70 531.73 232.10 C 529.55 235.96 525.96 238.79 523.97 242.73 M 523.26 243.06 L 523.70 243.79 C 519.36 244.45 517.46 248.81 514.14 251.08 C 511.05 253.23 508.13 255.73 506.23 259.03 C 508.74 257.38 510.61 255.00 512.82 253.02 C 521.59 247.94 530.84 243.35 538.14 236.16 C 533.43 238.89 528.81 242.45 523.26 243.06 M 273.90 237.79 C 274.88 241.21 277.02 244.11 278.84 247.12 C 280.93 250.71 285.24 252.62 285.72 257.11 C 290.18 260.70 294.03 265.04 299.00 267.97 C 292.08 261.42 286.11 253.95 281.10 245.84 C 278.02 243.78 276.25 240.54 273.90 237.79 M 256.94 263.90 C 260.18 266.75 263.13 270.04 267.05 271.99 C 272.07 274.40 277.36 277.10 283.12 276.25 C 274.41 272.13 266.49 265.95 256.94 263.90 M 317.16 271.58 C 321.42 276.53 328.09 279.59 330.60 285.98 C 332.97 281.77 335.13 277.44 337.43 273.19 C 330.66 272.81 323.92 272.05 317.16 271.58 M 444.03 274.95 C 437.82 275.56 431.44 274.79 425.34 276.18 C 429.83 285.57 434.62 294.83 440.40 303.51 C 441.76 305.39 442.38 307.65 442.45 309.97 C 445.30 307.58 448.50 305.67 451.39 303.34 C 455.53 299.30 456.11 293.16 459.47 288.59 C 461.45 286.59 458.28 283.45 460.73 281.85 C 463.65 279.31 465.13 275.41 468.70 273.59 C 460.49 274.30 452.24 274.29 444.03 274.95 M 340.00 273.49 C 347.54 289.05 355.62 304.38 365.15 318.81 C 366.12 319.96 367.37 321.20 369.00 321.22 C 374.08 322.29 375.29 315.44 376.57 312.11 L 373.94 315.29 C 375.32 310.94 376.24 306.45 376.47 301.89 C 376.61 298.06 379.31 294.93 379.71 291.15 C 380.34 287.41 378.82 283.80 378.49 280.12 C 384.96 281.57 389.92 286.06 394.95 290.04 C 399.57 291.69 403.44 294.66 407.01 297.96 C 412.41 290.91 416.26 282.62 421.37 275.29 C 394.25 274.61 367.13 273.27 340.00 273.49 M 338.57 275.09 C 337.11 278.67 334.30 281.90 334.55 285.98 C 333.97 293.24 338.51 299.34 341.33 305.66 C 348.11 311.13 355.43 316.06 363.10 320.29 C 357.85 311.07 352.01 302.19 347.29 292.68 C 344.18 286.92 341.54 280.92 338.57 275.09 M 421.44 279.36 C 417.25 286.39 413.23 293.54 408.66 300.34 C 410.22 302.24 411.66 304.24 412.72 306.47 C 414.32 309.83 417.29 312.17 419.79 314.82 C 417.11 313.49 414.67 311.74 412.19 310.09 C 412.55 313.65 413.55 317.39 416.25 319.93 L 413.64 318.67 C 414.04 319.47 414.85 321.07 415.25 321.86 C 419.43 322.01 423.78 319.57 426.80 316.65 C 431.01 317.37 434.16 313.50 436.50 310.55 C 437.38 308.77 439.85 306.64 438.23 304.64 C 432.74 295.67 427.57 286.48 423.58 276.73 C 422.72 277.48 421.97 278.35 421.44 279.36 M 490.87 288.90 C 493.37 287.45 495.98 286.12 498.06 284.07 C 494.96 284.31 492.32 286.19 490.87 288.90 M 494.06 307.90 C 496.73 309.04 499.90 308.67 502.30 310.56 C 502.50 310.28 502.90 309.72 503.10 309.45 C 506.50 309.81 509.27 307.74 512.13 306.27 C 506.15 307.38 500.03 306.77 494.06 307.90 M 278.05 310.36 C 281.12 311.15 284.35 310.76 287.16 309.28 C 284.11 309.28 280.84 308.89 278.05 310.36 M 468.25 324.86 C 468.29 327.31 468.04 329.84 468.79 332.22 C 469.61 334.86 472.34 336.29 473.27 338.88 C 474.49 342.58 477.96 344.72 479.89 348.00 C 477.38 341.55 474.69 335.14 470.18 329.81 C 468.83 328.49 468.70 326.57 468.25 324.86 M 304.60 345.49 C 307.53 345.63 310.73 346.16 313.33 344.45 C 316.64 343.27 320.17 342.18 322.27 339.13 C 317.04 342.80 310.43 343.20 304.60 345.49 M 313.94 360.09 C 314.51 361.00 315.07 361.92 315.63 362.85 C 317.26 360.58 319.14 358.51 320.96 356.39 C 318.81 357.96 316.82 360.15 313.94 360.09 M 356.26 370.38 C 355.19 371.30 355.28 372.76 355.10 374.04 C 358.91 369.82 361.23 364.43 364.93 360.07 C 361.12 362.65 359.26 367.04 356.26 370.38 M 375.55 472.74 C 376.02 473.35 376.51 473.96 377.00 474.57 C 376.86 472.55 377.71 470.73 378.40 468.91 C 380.07 464.74 380.78 460.27 381.59 455.88 C 379.14 461.33 377.33 467.04 375.55 472.74 Z" />
<path fill="#000000" opacity="1.00" d=" M 252.41 185.80 C 253.50 180.26 256.65 175.37 259.96 170.90 C 258.99 174.73 256.97 178.16 255.68 181.87 C 254.53 184.81 254.26 188.00 253.13 190.95 C 251.47 189.66 252.17 187.51 252.41 185.80 Z" />
<path fill="#000000" opacity="1.00" d=" M 561.42 191.89 C 562.13 195.92 562.44 200.08 561.67 204.12 C 561.43 205.31 561.20 206.69 559.91 207.22 C 560.61 202.13 561.37 197.04 561.42 191.89 Z" />
<path fill="#000000" opacity="1.00" d=" M 222.27 205.33 C 223.90 204.84 224.45 205.39 223.94 207.00 C 222.29 207.48 221.73 206.93 222.27 205.33 Z" />
<path fill="#000000" opacity="1.00" d=" M 573.46 233.55 C 573.91 237.44 574.86 242.08 572.03 245.32 C 572.28 241.38 573.26 237.51 573.46 233.55 Z" />
<path fill="#000000" opacity="1.00" d=" M 571.23 246.32 C 571.85 246.76 571.85 246.76 571.23 246.32 Z" />
<path fill="#000000" opacity="1.00" d=" M 239.31 299.70 C 240.14 298.65 242.54 299.65 243.84 299.81 C 244.39 300.49 244.48 301.21 244.11 301.99 C 242.56 301.11 240.80 300.61 239.31 299.70 Z" />
<path fill="#000000" opacity="1.00" d=" M 268.68 363.35 C 267.48 362.22 269.43 359.65 270.69 361.09 C 271.70 362.32 270.01 364.45 268.68 363.35 Z" />
<path fill="#000000" opacity="1.00" d=" M 344.67 412.40 C 345.06 412.41 345.85 412.45 346.25 412.47 C 345.97 417.64 343.65 422.43 342.26 427.37 C 342.04 422.28 343.36 417.27 344.67 412.40 Z" />
<path fill="#000000" opacity="1.00" d=" M 415.09 467.26 C 415.52 467.20 416.36 467.09 416.78 467.03 C 416.40 476.70 416.88 486.40 416.22 496.06 C 414.27 486.61 414.07 476.84 415.09 467.26 Z" />
<path fill="#000000" opacity="1.00" d=" M 369.72 495.37 C 370.17 495.34 371.07 495.29 371.52 495.26 C 372.07 501.69 372.19 508.14 372.24 514.59 C 372.10 514.59 371.82 514.60 371.68 514.61 C 370.89 508.21 369.87 501.82 369.72 495.37 Z" />
<path fill="#000000" opacity="1.00" d=" M 415.72 503.56 L 417.21 502.95 C 416.74 513.44 414.96 523.83 414.33 534.32 C 413.47 528.99 413.47 523.55 413.88 518.19 C 413.39 518.22 412.42 518.28 411.93 518.31 L 411.93 517.17 C 412.43 517.30 413.43 517.57 413.94 517.70 C 414.50 512.98 414.80 508.22 415.72 503.56 Z" />
<path fill="#000000" opacity="1.00" d=" M 369.28 517.16 C 370.49 516.92 371.17 517.36 371.33 518.47 C 371.65 521.36 371.57 524.29 371.37 527.19 C 369.98 524.03 369.79 520.53 369.28 517.16 Z" />
<path fill="#000000" opacity="1.00" d=" M 388.45 531.40 C 388.73 531.41 389.31 531.42 389.60 531.42 C 390.09 533.64 389.79 535.93 389.48 538.16 C 388.96 535.95 388.02 533.70 388.45 531.40 Z" />
</g>
</svg>
