<?xml version="1.0" encoding="UTF-8" ?>
<!DOCTYPE svg PUBLIC "-//W3C//DTD SVG 1.1//EN" "http://www.w3.org/Graphics/SVG/1.1/DTD/svg11.dtd">
<svg width="800pt" height="600pt" viewBox="0 0 800 600" version="1.1" xmlns="http://www.w3.org/2000/svg">
<g id="#000000ff">
<path fill="#000000" opacity="1.00" d=" M 537.25 232.23 C 537.83 232.78 537.83 232.78 537.25 232.23 Z" />
</g>
<g id="#ffffffff">
<path fill="#ffffff" opacity="1.00" d=" M 342.44 119.47 C 359.71 114.25 377.26 109.75 395.01 106.52 C 411.84 110.19 428.57 114.53 445.22 118.99 C 447.65 119.55 449.94 120.60 451.95 122.09 C 469.56 133.95 488.25 144.16 505.55 156.44 C 513.97 167.10 521.56 178.41 529.80 189.21 C 531.07 190.96 532.67 192.73 532.65 195.04 C 533.12 202.53 532.55 210.07 531.02 217.42 C 538.03 208.92 544.96 200.33 551.48 191.44 C 553.78 188.40 554.72 184.57 557.18 181.65 C 557.97 185.56 555.22 188.71 554.09 192.21 C 553.10 195.83 552.75 199.64 551.14 203.07 C 548.61 208.48 544.69 213.29 543.41 219.24 C 542.39 223.81 540.09 227.91 538.07 232.08 C 542.73 228.11 547.19 223.84 551.20 219.19 C 553.83 216.26 555.06 212.04 558.76 210.16 C 558.70 214.81 557.89 219.54 555.71 223.69 C 552.40 230.62 547.00 236.18 542.67 242.43 C 549.05 238.35 554.59 233.16 560.23 228.19 C 559.66 230.78 558.53 233.18 557.64 235.67 C 561.84 232.80 565.03 228.82 568.03 224.77 C 566.21 232.87 562.48 240.65 556.68 246.66 C 550.60 253.49 542.88 258.54 534.96 262.97 C 530.18 265.42 527.34 270.35 522.54 272.73 C 521.24 273.43 519.95 274.13 518.74 274.96 C 526.25 271.11 534.52 269.26 542.61 267.03 C 529.95 275.18 515.68 280.44 502.70 288.03 C 509.28 285.75 515.50 282.56 521.94 279.91 C 531.24 276.04 540.40 271.59 548.40 265.39 C 551.81 262.55 556.10 261.19 559.83 258.86 C 563.73 256.45 567.10 253.28 570.30 250.01 C 568.63 253.32 566.67 256.47 564.46 259.43 C 559.13 265.68 555.92 273.52 549.57 278.94 C 555.61 278.43 562.03 279.97 567.56 276.78 C 564.56 280.60 560.22 283.05 555.69 284.56 C 550.45 286.04 545.81 289.17 540.42 290.18 C 532.40 292.27 523.71 291.50 516.14 295.20 C 512.33 297.09 508.05 297.28 503.90 297.58 C 512.19 298.03 520.56 298.28 528.74 296.56 C 538.69 294.44 548.92 296.18 558.94 294.86 C 564.03 294.17 568.16 290.98 571.93 287.74 C 569.79 290.92 567.38 294.01 564.23 296.23 C 557.93 300.81 550.75 304.64 542.89 305.41 C 538.58 305.86 534.33 306.74 530.01 307.10 C 530.92 307.82 531.83 308.57 532.73 309.33 C 529.14 309.71 525.53 309.59 521.93 309.59 C 528.47 312.24 534.74 315.61 541.53 317.62 C 545.23 318.87 549.14 318.02 552.94 318.31 C 553.10 318.75 553.42 319.64 553.58 320.08 C 546.51 325.89 536.53 326.16 527.97 324.11 C 521.68 322.77 515.91 319.89 509.89 317.74 C 519.37 323.50 527.11 331.62 536.49 337.52 C 537.51 338.19 538.31 339.09 538.87 340.22 C 536.00 339.66 533.42 338.20 530.58 337.58 C 524.88 336.00 518.85 335.32 513.59 332.47 C 505.50 328.26 498.91 321.24 489.80 319.04 C 497.61 324.50 504.87 330.68 511.77 337.24 C 516.13 340.87 520.14 345.34 525.70 347.11 C 529.24 348.39 533.05 348.19 536.72 348.76 C 530.67 351.14 523.43 351.86 517.59 348.50 C 511.36 345.28 504.83 342.66 498.65 339.34 C 493.84 336.79 489.58 333.34 484.79 330.78 C 487.09 333.29 489.46 335.76 491.43 338.56 C 495.49 343.45 500.24 347.73 504.43 352.50 C 504.60 353.06 504.95 354.19 505.12 354.75 C 497.64 354.42 492.77 347.96 487.25 343.77 C 492.00 350.83 497.69 357.33 504.43 362.56 C 505.82 363.28 506.00 364.89 506.48 366.24 C 501.31 365.41 496.71 362.50 492.58 359.42 C 489.87 356.31 487.37 352.96 483.77 350.77 C 486.90 357.11 490.61 363.10 495.15 368.52 C 489.16 368.40 484.71 364.08 479.92 361.11 C 474.78 357.96 471.98 352.45 468.26 347.92 C 468.29 349.32 468.33 350.72 468.37 352.13 C 466.55 352.60 464.72 353.05 462.92 353.54 C 467.07 360.16 468.68 367.90 472.14 374.85 C 473.41 378.05 475.24 380.98 476.90 383.99 C 474.06 380.55 471.58 376.75 467.90 374.12 C 463.99 371.32 460.48 367.77 458.84 363.16 C 457.11 358.01 453.53 353.85 451.05 349.09 C 454.17 358.11 455.73 367.57 458.31 376.74 C 459.42 380.80 461.21 384.68 461.65 388.90 C 459.53 387.13 457.88 384.92 456.24 382.73 C 453.62 379.11 450.24 376.11 447.80 372.35 C 447.61 372.89 447.21 373.97 447.01 374.51 C 446.05 373.20 445.12 371.87 444.15 370.59 C 445.46 375.94 446.72 381.34 446.92 386.88 C 444.87 385.00 442.75 383.16 441.03 380.97 C 438.73 377.96 438.20 374.11 437.08 370.59 C 436.73 378.53 438.54 386.30 439.61 394.12 C 440.54 399.95 441.32 405.81 442.20 411.65 C 443.05 417.31 445.40 422.57 446.89 428.06 C 444.28 423.80 441.38 419.60 440.15 414.69 C 436.47 405.38 438.17 394.38 431.88 386.09 C 429.38 381.92 429.26 376.93 428.02 372.35 C 426.88 380.34 426.91 388.48 426.15 396.53 C 422.81 391.78 421.46 386.14 419.59 380.74 C 419.40 386.31 420.17 391.89 419.42 397.45 C 416.80 394.92 416.82 390.64 413.65 388.65 C 412.34 387.53 411.31 386.15 410.18 384.87 C 410.00 391.52 409.60 398.44 412.39 404.68 C 415.03 410.36 417.06 416.48 421.37 421.19 C 419.52 420.50 417.73 419.67 415.94 418.88 C 418.12 424.42 419.60 430.27 422.54 435.49 C 423.96 438.18 425.97 440.48 427.55 443.07 C 425.09 441.68 422.97 439.82 420.94 437.88 C 422.99 444.81 426.82 451.31 427.20 458.66 C 426.68 458.78 425.65 459.03 425.13 459.15 C 424.89 459.53 424.42 460.28 424.18 460.65 C 424.02 466.54 423.98 472.45 423.23 478.30 C 422.12 472.65 422.07 466.84 422.28 461.11 C 422.13 459.74 422.96 458.70 423.79 457.73 C 422.41 453.46 418.69 450.16 416.53 446.20 C 416.20 448.34 415.88 450.51 415.39 452.64 C 414.28 457.00 416.38 461.51 415.04 465.86 C 412.37 461.19 410.24 456.17 409.11 450.90 C 408.81 458.61 410.49 466.31 409.32 474.01 C 409.84 480.00 411.78 485.84 411.87 491.91 C 411.92 498.36 412.51 504.78 412.57 511.23 C 410.36 502.10 409.59 492.69 408.25 483.42 C 406.28 474.45 406.01 465.00 401.83 456.64 C 401.60 462.37 402.52 468.13 401.68 473.83 C 401.01 477.79 397.93 480.93 397.60 484.98 C 397.27 488.64 396.87 492.35 397.25 496.02 C 397.90 498.73 398.64 501.43 398.72 504.24 C 396.49 500.53 397.69 496.07 396.12 492.16 C 394.55 487.42 395.11 482.29 393.63 477.53 C 392.58 482.21 391.93 486.98 390.71 491.63 C 388.49 504.38 389.77 517.37 389.41 530.22 C 386.66 516.98 387.10 503.35 388.44 489.97 C 388.10 484.98 387.67 479.97 388.48 475.00 C 389.53 468.01 388.83 460.97 388.64 453.97 C 388.04 459.29 386.49 464.44 385.54 469.70 C 384.40 476.72 384.10 483.88 384.82 490.96 C 382.87 488.81 381.36 486.33 379.77 483.93 C 377.83 494.23 378.80 504.82 377.12 515.17 C 375.90 506.51 376.71 497.74 376.53 489.03 C 375.43 483.76 374.91 478.19 376.89 473.04 C 379.10 467.47 380.84 461.71 381.51 455.73 C 379.06 461.97 376.77 468.27 375.07 474.76 C 374.37 473.38 373.71 472.00 373.09 470.61 C 372.31 472.66 370.97 474.64 371.17 476.93 C 371.24 482.41 371.81 487.88 371.51 493.36 C 369.74 487.24 369.71 480.78 368.38 474.57 C 367.05 476.93 367.35 479.65 367.22 482.25 C 366.45 479.89 365.92 477.44 364.99 475.14 C 364.44 477.87 364.74 480.68 364.50 483.45 C 362.62 476.45 362.24 469.17 361.57 461.98 C 362.69 458.35 364.05 454.80 365.10 451.14 C 362.48 453.93 359.30 456.29 355.34 456.59 C 357.55 451.30 360.18 446.17 363.57 441.54 C 365.23 432.91 363.73 423.89 366.51 415.46 C 367.82 410.90 370.71 406.77 370.67 401.87 C 369.67 402.90 368.72 403.96 367.81 405.06 C 368.36 399.02 368.57 392.83 371.04 387.18 C 370.55 387.43 369.57 387.93 369.08 388.18 C 369.16 385.92 369.17 383.66 369.07 381.41 C 367.08 384.16 365.31 387.07 363.09 389.66 C 364.14 384.97 364.97 380.22 364.58 375.40 C 360.77 382.98 356.28 390.81 356.54 399.58 C 354.38 394.99 353.97 389.90 354.82 384.94 C 352.30 389.20 349.77 393.49 346.66 397.36 C 346.93 392.49 347.98 387.70 348.82 382.91 C 346.76 385.36 344.50 387.80 341.44 388.95 C 340.85 384.76 342.83 380.84 343.63 376.82 C 341.97 380.00 340.43 383.30 337.93 385.94 C 335.77 388.25 334.08 391.41 330.75 392.18 C 330.89 390.62 331.03 389.06 331.61 387.60 C 335.55 377.55 338.45 367.14 341.81 356.89 C 337.40 363.50 334.01 370.81 329.00 377.01 C 327.92 378.64 325.96 378.89 324.23 379.33 C 322.02 384.21 319.76 389.18 316.32 393.33 C 315.62 393.65 314.24 394.28 313.55 394.60 C 313.50 388.85 317.44 384.02 318.31 378.40 C 315.78 381.00 314.45 384.97 310.75 386.20 C 310.58 384.63 310.45 382.98 311.44 381.64 C 314.23 376.57 316.52 371.23 318.26 365.71 C 314.59 369.97 310.28 373.70 305.31 376.37 C 303.95 377.34 302.27 377.31 300.69 377.25 C 302.58 373.66 305.81 371.07 308.18 367.82 C 306.77 365.47 307.79 363.12 308.84 360.88 C 303.30 363.12 301.29 369.64 295.69 371.69 C 293.08 372.86 290.40 373.87 287.80 375.09 C 291.70 371.49 294.18 366.77 297.01 362.36 C 295.79 362.62 294.57 362.87 293.35 363.12 C 294.60 360.03 296.65 357.40 298.90 354.97 C 295.12 356.38 291.29 357.65 287.40 358.69 C 288.35 355.44 290.77 352.96 292.92 350.45 C 291.97 350.42 290.08 350.35 289.13 350.32 C 289.99 345.80 293.64 342.57 295.76 338.63 C 293.15 340.79 290.92 343.35 289.19 346.26 C 287.06 349.84 283.36 352.14 279.41 353.23 C 279.47 354.02 279.57 355.61 279.63 356.40 C 279.35 355.72 278.79 354.36 278.50 353.68 C 274.91 355.06 271.38 357.23 267.39 356.76 C 269.94 354.53 272.64 352.44 274.75 349.76 C 279.77 344.27 285.21 339.19 290.30 333.78 C 284.59 334.38 278.66 334.03 273.24 336.26 C 271.67 337.07 269.99 336.93 268.38 336.30 C 276.03 331.72 283.77 327.27 291.34 322.55 C 287.31 322.49 283.27 322.22 279.36 321.15 C 273.05 326.65 264.40 328.32 256.26 327.59 C 255.42 327.35 254.59 327.06 253.79 326.71 C 261.25 322.48 269.17 319.12 277.25 316.25 C 266.22 318.18 255.08 316.66 244.02 316.21 C 249.91 314.27 255.04 310.52 261.06 308.89 C 270.72 306.24 280.98 305.96 290.34 302.16 C 281.56 302.49 272.81 303.84 264.01 303.14 C 257.80 302.57 251.48 303.27 245.33 302.07 C 245.28 301.86 245.19 301.42 245.15 301.20 C 245.86 301.03 247.30 300.67 248.02 300.49 C 244.34 299.38 240.37 298.26 237.75 295.26 C 235.58 292.73 232.46 291.25 230.43 288.59 C 228.16 285.62 226.29 282.34 224.80 278.92 C 228.02 282.77 230.46 287.39 234.57 290.41 C 240.22 292.71 246.43 292.86 252.39 293.74 C 256.73 294.42 261.11 294.90 265.51 295.01 C 259.27 292.49 253.48 288.92 247.00 287.01 C 243.39 285.61 239.00 284.68 236.90 281.07 C 234.77 277.57 231.58 274.97 228.78 272.05 C 232.62 274.69 237.12 275.90 241.44 277.51 C 249.53 281.02 258.43 282.16 267.15 282.87 C 257.48 278.77 248.03 273.87 239.93 267.12 C 242.40 267.95 244.94 268.67 247.56 267.97 C 243.62 265.86 239.26 264.21 236.22 260.79 C 233.62 257.88 230.57 255.44 227.72 252.79 C 233.27 256.29 240.03 255.74 246.12 257.70 C 241.29 253.23 237.09 248.15 232.37 243.56 C 235.54 244.85 238.42 246.71 241.48 248.23 C 237.47 242.45 231.61 238.18 228.23 231.93 C 231.71 234.04 235.29 236.08 239.30 236.95 C 235.79 227.86 228.12 220.99 225.68 211.42 C 229.74 216.34 231.94 222.92 237.54 226.47 C 241.84 229.10 244.35 233.62 248.09 236.88 C 254.32 241.85 257.25 250.34 265.09 253.37 C 260.34 248.25 255.76 242.96 251.87 237.14 C 250.13 234.58 248.40 232.00 246.18 229.83 C 241.03 224.71 238.30 217.81 233.96 212.07 C 231.18 208.47 228.52 204.71 226.75 200.49 C 234.55 207.50 239.62 216.76 246.08 224.90 C 249.55 230.61 254.66 234.98 259.23 239.77 C 262.43 243.06 265.51 246.50 269.25 249.19 C 263.89 242.71 258.17 236.49 253.58 229.41 C 246.48 218.97 239.19 208.56 233.96 197.02 C 231.16 190.62 225.53 185.71 224.07 178.69 C 226.15 181.35 228.01 184.19 230.34 186.65 C 233.96 190.57 235.35 196.04 239.22 199.75 C 241.08 201.58 242.85 203.51 244.32 205.67 C 250.69 214.92 257.22 224.19 265.24 232.11 C 261.09 223.11 256.95 214.05 254.42 204.44 C 253.57 200.88 251.84 197.31 253.09 193.61 C 254.88 199.26 256.70 204.90 258.82 210.44 C 258.77 205.61 258.54 200.70 259.86 195.99 C 261.06 191.65 261.47 186.93 264.08 183.13 C 269.99 173.82 276.98 165.27 283.19 156.17 C 284.85 153.41 287.95 152.17 290.56 150.53 C 298.87 145.47 307.47 140.89 315.68 135.68 C 324.53 130.17 333.37 124.60 342.44 119.47 M 353.58 118.31 C 366.24 119.13 378.93 118.24 391.60 118.52 C 392.85 115.23 394.01 111.90 395.26 108.61 C 381.28 111.46 367.28 114.32 353.58 118.31 M 396.93 108.75 C 395.88 111.76 394.91 114.79 393.92 117.81 C 410.07 117.97 426.20 118.92 442.26 120.60 C 427.31 116.07 412.03 112.73 396.93 108.75 M 345.41 120.72 C 343.62 120.71 342.69 122.43 341.57 123.55 C 336.01 130.23 330.34 136.86 325.78 144.29 C 339.39 138.38 352.79 131.93 366.72 126.77 C 372.54 124.55 378.61 123.07 384.37 120.68 C 376.58 120.54 368.80 120.73 361.01 120.61 C 355.82 120.43 350.59 120.17 345.41 120.72 M 397.34 119.92 C 416.15 127.30 434.46 135.95 452.74 144.55 C 451.52 137.66 450.78 130.69 449.49 123.81 C 432.18 121.67 414.78 119.97 397.34 119.92 M 326.12 146.87 C 346.05 149.12 365.88 152.31 385.33 157.26 C 386.97 145.06 388.41 132.80 391.32 120.82 C 368.70 127.06 347.24 136.76 326.12 146.87 M 393.25 120.73 C 390.20 132.60 389.01 144.82 387.32 156.93 C 408.10 152.90 429.02 149.61 449.83 145.75 C 431.21 136.90 412.61 127.86 393.25 120.73 M 314.67 138.64 C 307.84 142.91 300.68 146.61 293.81 150.80 C 302.99 148.61 312.33 147.20 321.65 145.80 C 324.08 143.42 325.69 140.37 327.68 137.64 C 330.66 133.13 334.51 129.29 337.64 124.89 C 329.74 129.06 322.30 134.02 314.67 138.64 M 451.35 123.95 C 452.77 130.95 453.48 138.06 454.88 145.07 C 469.77 147.62 484.58 150.66 499.14 154.67 C 493.02 150.47 486.82 146.37 480.44 142.55 C 470.58 136.62 461.09 130.09 451.35 123.95 M 287.00 154.83 C 283.12 168.06 277.07 180.52 272.85 193.63 C 288.08 177.85 303.85 162.57 320.42 148.19 C 309.10 149.41 298.04 152.18 287.00 154.83 M 387.67 158.74 C 396.94 165.01 406.53 170.81 415.64 177.32 C 426.77 185.25 438.05 192.97 449.22 200.83 C 450.69 183.13 452.04 165.40 452.20 147.64 C 430.76 151.73 409.13 154.76 387.67 158.74 M 454.12 147.54 C 454.08 165.41 452.61 183.23 451.06 201.02 C 457.39 200.23 463.74 199.62 470.10 199.03 C 482.05 197.97 493.85 195.60 505.80 194.48 C 502.86 192.00 500.22 189.21 497.43 186.58 C 483.40 173.12 468.50 160.61 454.12 147.54 M 457.68 147.89 C 464.63 154.06 471.61 160.22 478.61 166.35 C 488.84 174.78 498.25 184.15 508.00 193.12 C 506.64 181.82 505.91 170.46 504.49 159.17 C 489.23 154.15 473.43 150.95 457.68 147.89 M 324.11 148.97 C 323.25 165.59 320.44 182.03 319.71 198.64 C 327.00 194.37 334.04 189.69 341.25 185.29 C 355.15 176.67 368.11 166.62 382.28 158.43 C 363.13 153.95 343.71 150.65 324.11 148.97 M 273.23 196.20 C 288.07 197.24 302.97 197.31 317.77 198.85 C 318.03 182.22 321.45 165.80 322.08 149.17 C 304.90 163.88 288.75 179.76 273.23 196.20 M 265.21 185.16 C 262.94 192.32 263.67 200.22 266.35 207.18 C 270.77 190.79 277.90 175.34 283.45 159.35 C 277.10 167.74 270.70 176.17 265.21 185.16 M 345.20 185.20 C 337.53 190.01 329.93 194.90 322.23 199.66 C 342.14 204.36 361.28 211.71 381.03 216.97 C 381.53 197.72 382.46 178.46 384.75 159.33 C 370.91 166.92 358.52 176.79 345.20 185.20 M 386.54 160.47 C 384.38 179.40 383.64 198.44 383.10 217.47 C 404.45 213.09 425.69 208.15 446.58 201.89 C 426.68 187.91 406.98 173.65 386.54 160.47 M 506.47 160.95 C 507.98 171.58 508.58 182.32 510.24 192.93 C 515.85 196.54 521.92 199.37 527.47 203.10 C 529.00 200.46 530.82 197.69 530.61 194.51 C 522.57 183.33 514.49 172.16 506.47 160.95 M 486.99 199.86 C 475.24 201.67 463.35 202.24 451.54 203.46 C 458.51 211.24 464.95 219.48 471.06 227.96 C 477.27 236.34 484.15 245.13 485.18 255.89 C 486.74 249.67 489.61 243.71 493.94 238.94 C 495.81 236.84 498.33 235.24 499.55 232.61 C 502.66 226.79 505.88 220.74 506.44 214.05 C 507.01 208.15 507.17 202.21 507.91 196.33 C 501.19 198.71 493.97 198.74 486.99 199.86 M 510.58 196.81 C 509.68 204.18 509.97 211.60 509.38 218.97 C 511.75 214.72 512.83 209.95 514.85 205.57 C 514.50 217.31 509.03 227.82 505.10 238.62 C 511.54 233.23 515.16 225.46 519.79 218.65 C 523.43 215.43 525.18 210.80 527.19 206.50 C 521.76 203.10 516.21 199.87 510.58 196.81 M 272.56 216.30 C 273.55 220.35 276.05 223.78 277.84 227.50 C 277.71 225.34 277.69 223.18 277.77 221.02 C 279.25 223.58 279.57 226.60 280.70 229.31 C 282.33 233.99 286.43 237.10 289.06 241.18 C 290.60 237.28 292.80 233.69 295.33 230.36 C 302.68 220.50 309.33 210.12 317.23 200.68 C 302.05 199.38 286.80 199.31 271.60 198.33 C 270.28 204.29 271.10 210.44 272.56 216.30 M 319.77 201.08 C 324.60 224.31 332.45 246.76 339.41 269.41 C 351.94 251.97 364.99 234.83 379.20 218.69 C 359.25 213.27 339.95 205.67 319.77 201.08 M 301.07 226.07 C 297.49 233.26 295.19 241.62 296.43 249.66 C 298.29 259.13 307.54 263.96 315.64 267.38 C 322.23 271.22 330.10 270.51 337.40 271.30 C 330.43 248.64 322.85 226.09 317.96 202.86 C 311.86 210.24 306.46 218.16 301.07 226.07 M 384.00 219.33 C 391.21 228.42 397.67 238.07 404.68 247.30 C 410.59 255.30 416.73 263.12 422.69 271.09 C 427.64 258.39 432.37 245.62 436.88 232.77 C 440.62 222.83 444.70 213.02 448.74 203.20 C 427.47 209.71 405.85 215.15 384.00 219.33 M 450.18 205.01 C 440.71 227.58 433.12 250.85 424.40 273.70 C 439.11 272.70 453.84 271.83 468.57 271.19 C 472.47 271.01 476.71 268.06 476.63 263.83 C 477.19 252.80 476.10 241.18 470.68 231.35 C 464.31 222.23 457.55 213.35 450.18 205.01 M 520.40 224.36 C 517.88 228.19 517.45 232.87 516.25 237.19 C 517.29 234.91 518.19 232.57 519.21 230.29 C 519.64 230.69 520.48 231.48 520.90 231.88 C 522.26 229.94 523.55 227.92 524.35 225.67 C 523.42 226.96 522.58 228.30 521.84 229.71 C 521.37 229.12 520.91 228.52 520.46 227.93 C 522.67 223.73 524.86 219.45 525.86 214.78 C 523.97 217.93 522.34 221.24 520.40 224.36 M 341.24 271.39 C 367.78 270.91 394.32 271.95 420.84 272.76 C 415.14 264.96 409.21 257.32 403.53 249.51 C 396.11 239.61 389.29 229.26 381.71 219.48 C 367.22 235.98 354.12 253.63 341.24 271.39 M 267.84 226.68 C 268.22 229.24 268.88 231.98 271.25 233.45 C 270.64 230.96 269.30 228.75 267.84 226.68 M 523.39 243.35 C 521.41 244.68 519.32 245.88 517.72 247.69 C 514.37 251.62 509.25 253.78 506.70 258.44 C 509.62 256.85 511.31 253.80 514.18 252.18 C 522.22 247.63 530.65 243.39 537.28 236.83 C 533.32 239.16 529.32 241.45 524.97 243.00 C 527.45 239.44 530.65 236.31 532.23 232.20 C 529.03 235.70 526.00 239.38 523.39 243.35 M 537.25 232.23 C 537.83 232.78 537.83 232.78 537.25 232.23 M 273.79 237.68 C 275.96 243.21 279.15 248.48 283.60 252.47 C 285.21 254.02 284.94 256.79 286.90 258.08 C 290.71 261.21 293.97 265.09 298.42 267.38 C 291.64 261.08 286.11 253.64 281.07 245.92 C 278.16 243.61 276.08 240.55 273.79 237.68 M 256.94 263.78 C 260.23 266.94 263.48 270.33 267.67 272.30 C 272.43 274.55 277.46 277.08 282.91 276.18 C 274.32 271.94 266.36 266.08 256.94 263.78 M 317.02 271.66 C 321.67 276.30 327.83 279.77 330.73 285.93 C 332.94 281.67 335.18 277.43 337.41 273.18 C 330.60 272.88 323.83 271.94 317.02 271.66 M 426.48 275.79 C 424.83 276.58 426.43 277.97 426.79 279.08 C 430.71 287.59 435.37 295.74 440.46 303.60 C 441.75 305.46 442.25 307.69 442.64 309.89 C 445.39 307.50 448.53 305.64 451.35 303.35 C 455.38 299.51 455.99 293.61 459.13 289.17 C 460.66 287.36 460.03 285.10 459.62 283.01 C 462.91 280.12 464.89 275.98 468.61 273.56 C 454.59 274.60 440.51 274.92 426.48 275.79 M 340.06 273.54 C 346.78 287.60 354.09 301.39 362.41 314.58 C 364.22 317.37 366.01 321.57 370.01 321.25 C 373.42 321.53 374.61 317.42 375.71 314.90 C 374.57 310.65 376.32 306.45 376.44 302.19 C 376.61 298.17 379.32 294.85 379.75 290.88 C 380.24 287.23 378.86 283.69 378.49 280.10 C 384.68 281.59 389.63 285.65 394.37 289.66 C 399.10 291.76 403.60 294.39 407.17 298.22 C 412.04 290.70 416.41 282.88 421.27 275.36 C 394.21 274.55 367.15 273.27 340.06 273.54 M 338.64 275.04 C 337.06 278.58 334.37 281.89 334.55 285.96 C 334.01 293.21 338.45 299.36 341.34 305.64 C 348.08 311.18 355.43 316.00 363.05 320.27 C 360.64 315.94 358.04 311.71 355.50 307.45 C 349.18 297.03 343.82 286.06 338.64 275.04 M 262.69 276.86 C 265.99 278.87 269.64 280.34 273.42 281.19 C 270.10 279.21 266.45 277.74 262.69 276.86 M 423.28 276.39 C 418.37 284.34 413.89 292.53 408.70 300.31 C 410.33 302.41 411.80 304.62 413.02 307.00 C 414.53 309.89 417.12 311.95 419.20 314.41 C 416.73 313.20 414.49 311.60 412.11 310.23 C 412.78 314.33 414.67 318.09 415.09 322.25 C 419.27 321.68 423.07 319.71 426.48 317.30 C 432.57 316.46 436.64 311.27 439.09 306.04 C 433.11 296.55 427.82 286.65 423.28 276.39 M 490.66 288.85 C 493.36 287.48 496.14 286.10 498.17 283.79 C 495.08 284.46 492.42 286.22 490.66 288.85 M 509.72 303.65 C 515.29 303.28 520.83 303.64 526.35 304.47 C 525.54 303.63 524.81 302.70 523.87 302.03 C 519.14 302.39 514.37 302.71 509.72 303.65 M 494.41 308.06 C 497.65 308.70 500.91 310.23 504.27 309.47 C 507.24 309.43 509.61 307.48 512.15 306.20 C 506.29 307.45 500.21 306.56 494.41 308.06 M 278.45 310.52 C 281.47 311.13 284.53 310.58 287.30 309.30 C 284.35 309.38 281.02 308.70 278.45 310.52 M 467.92 325.97 C 468.24 328.30 468.20 330.75 469.11 332.96 C 470.43 335.27 472.60 337.02 473.58 339.55 C 475.01 342.85 478.01 345.05 479.99 348.00 C 478.93 345.61 477.86 343.23 476.89 340.80 C 474.89 335.30 470.54 331.12 467.92 325.97 M 304.60 345.51 C 306.62 345.59 308.66 345.81 310.67 345.51 C 314.77 343.81 319.37 342.76 322.44 339.29 C 316.94 342.53 310.52 343.34 304.60 345.51 M 314.08 360.39 C 314.57 361.17 315.06 361.96 315.54 362.76 C 317.09 360.86 318.71 359.03 320.31 357.17 C 318.34 358.44 316.35 359.72 314.08 360.39 M 356.35 370.33 C 355.35 371.40 355.19 372.88 354.85 374.24 C 358.59 370.17 361.09 365.11 364.27 360.60 C 360.97 363.28 358.99 367.09 356.35 370.33 M 367.71 457.53 C 366.73 459.57 365.45 461.44 364.34 463.40 C 363.96 467.56 364.14 471.79 364.70 475.93 C 365.04 474.76 365.31 473.57 365.51 472.37 C 366.30 466.50 369.98 461.64 372.21 456.29 C 370.72 456.75 369.22 457.18 367.71 457.53 Z" />
<path fill="#ffffff" opacity="1.00" d=" M 262.20 166.23 C 262.83 166.87 262.83 166.87 262.20 166.23 Z" />
<path fill="#ffffff" opacity="1.00" d=" M 253.07 183.14 C 254.62 178.66 257.15 174.56 260.07 170.86 C 258.93 174.63 257.02 178.11 255.71 181.83 C 254.56 184.87 254.20 188.14 253.02 191.17 C 251.30 188.73 252.40 185.74 253.07 183.14 Z" />
<path fill="#ffffff" opacity="1.00" d=" M 561.54 192.55 C 561.82 197.52 563.14 203.29 560.00 207.62 C 560.48 202.60 561.06 197.58 561.54 192.55 Z" />
<path fill="#ffffff" opacity="1.00" d=" M 222.23 205.38 C 223.86 204.87 224.43 205.42 223.94 207.02 C 222.31 207.54 221.74 206.99 222.23 205.38 Z" />
<path fill="#ffffff" opacity="1.00" d=" M 254.01 215.02 C 255.39 214.57 255.87 215.05 255.44 216.45 C 254.03 216.88 253.55 216.40 254.01 215.02 Z" />
<path fill="#ffffff" opacity="1.00" d=" M 573.71 234.40 C 574.05 238.12 574.58 242.42 571.95 245.50 C 572.30 241.77 573.00 238.07 573.71 234.40 Z" />
<path fill="#ffffff" opacity="1.00" d=" M 571.23 246.23 C 571.81 246.81 571.81 246.81 571.23 246.23 Z" />
<path fill="#ffffff" opacity="1.00" d=" M 242.46 300.07 L 243.26 299.65 C 243.40 299.96 243.69 300.57 243.83 300.87 L 243.32 301.40 L 242.49 300.99 L 242.46 300.07 Z" />
<path fill="#ffffff" opacity="1.00" d=" M 268.90 361.35 C 270.51 360.76 271.04 361.30 270.47 362.97 C 268.86 363.55 268.34 363.01 268.90 361.35 Z" />
<path fill="#ffffff" opacity="1.00" d=" M 365.15 396.45 C 366.77 395.91 367.33 396.46 366.81 398.10 C 365.18 398.62 364.63 398.07 365.15 396.45 Z" />
<path fill="#ffffff" opacity="1.00" d=" M 310.66 397.00 C 312.26 396.46 312.80 397.01 312.29 398.66 C 310.67 399.18 310.13 398.63 310.66 397.00 Z" />
<path fill="#ffffff" opacity="1.00" d=" M 346.77 400.24 C 348.35 399.71 348.89 400.27 348.38 401.93 C 346.79 402.45 346.25 401.89 346.77 400.24 Z" />
<path fill="#ffffff" opacity="1.00" d=" M 344.39 413.47 C 344.83 412.99 345.71 412.03 346.15 411.55 C 346.21 417.06 343.94 422.25 342.01 427.31 C 342.25 422.63 343.10 417.96 344.39 413.47 Z" />
<path fill="#ffffff" opacity="1.00" d=" M 414.98 467.15 C 415.44 467.16 416.37 467.20 416.83 467.22 C 416.32 476.87 416.94 486.56 416.19 496.20 C 414.26 486.64 414.19 476.83 414.98 467.15 Z" />
<path fill="#ffffff" opacity="1.00" d=" M 363.12 488.29 C 366.55 488.40 361.54 491.22 363.12 488.29 Z" />
<path fill="#ffffff" opacity="1.00" d=" M 369.97 494.53 C 370.37 494.99 371.17 495.92 371.57 496.38 C 372.11 502.64 372.36 508.98 372.04 515.27 C 370.72 508.46 369.65 501.48 369.97 494.53 Z" />
<path fill="#ffffff" opacity="1.00" d=" M 413.68 517.69 C 415.23 512.69 413.71 506.67 417.04 502.39 C 417.43 507.30 416.48 512.16 415.95 517.02 C 415.11 522.74 415.02 528.52 414.40 534.27 C 413.35 528.80 413.69 523.22 413.68 517.69 Z" />
<path fill="#ffffff" opacity="1.00" d=" M 369.26 517.22 C 369.77 517.25 370.78 517.33 371.28 517.36 C 371.52 520.71 371.66 524.07 371.32 527.43 C 370.19 524.12 369.74 520.65 369.26 517.22 Z" />
<path fill="#ffffff" opacity="1.00" d=" M 388.01 531.69 C 388.47 531.64 389.40 531.53 389.86 531.48 C 389.85 533.58 389.83 535.69 389.64 537.80 C 388.86 535.82 388.42 533.75 388.01 531.69 Z" />
</g>
</svg>
